<?xml version="1.0" encoding="UTF-8" standalone="no"?>
<!-- Creator: Corel DESIGNER -->
<svg
   xmlns:dc="http://purl.org/dc/elements/1.1/"
   xmlns:cc="http://creativecommons.org/ns#"
   xmlns:rdf="http://www.w3.org/1999/02/22-rdf-syntax-ns#"
   xmlns:svg="http://www.w3.org/2000/svg"
   xmlns="http://www.w3.org/2000/svg"
   xmlns:sodipodi="http://sodipodi.sourceforge.net/DTD/sodipodi-0.dtd"
   xmlns:inkscape="http://www.inkscape.org/namespaces/inkscape"
   xml:space="preserve"
   width="300"
   height="500"
   style="fill-rule:evenodd"
   viewBox="0 0 7.9879 10.2409"
   id="svg2"
   sodipodi:version="0.32"
   inkscape:version="0.46dev+devel"
   sodipodi:docname="JicJac_Various_Clothing_3_pants.svg"
   inkscape:output_extension="org.inkscape.output.svg.inkscape"
   version="1.0"><metadata
   id="metadata144"><rdf:RDF><cc:Work
       rdf:about=""><dc:format>image/svg+xml</dc:format><dc:type
         rdf:resource="http://purl.org/dc/dcmitype/StillImage" /></cc:Work></rdf:RDF></metadata><sodipodi:namedview
   inkscape:window-height="744"
   inkscape:window-width="1280"
   inkscape:pageshadow="2"
   inkscape:pageopacity="0.0"
   guidetolerance="10.0"
   gridtolerance="10.0"
   objecttolerance="10.0"
   borderopacity="1.0"
   bordercolor="#666666"
   pagecolor="#ffffff"
   id="base"
   showgrid="false"
   width="300px"
   borderlayer="true"
   inkscape:zoom="0.56592554"
   inkscape:cx="367.30981"
   inkscape:cy="459.87415"
   inkscape:window-x="-4"
   inkscape:window-y="-4"
   inkscape:current-layer="svg2" />
 <defs
   id="defs4">
  <style
   type="text/css"
   id="style6">
   
    .str2 {stroke:black;stroke-width:0.00562512;stroke-linecap:round}
    .str7 {stroke:black;stroke-width:0.0058717;stroke-linecap:round}
    .str1 {stroke:black;stroke-width:0.00920054;stroke-linecap:round}
    .str4 {stroke:black;stroke-width:0.00959738;stroke-linecap:round}
    .str3 {stroke:white;stroke-width:0.0147332;stroke-linecap:round}
    .str6 {stroke:black;stroke-width:0.0153574;stroke-linecap:round}
    .str8 {stroke:white;stroke-width:0.0153574;stroke-linecap:round}
    .str0 {stroke:black;stroke-width:0.0221537;stroke-linecap:round}
    .str5 {stroke:black;stroke-width:0.0230938;stroke-linecap:round}
    .fil0 {fill:none;fill-rule:nonzero}
   
  </style>
 
  <metadata
   id="CorelCorpID_0Corel-Layer" />
  
  
  
  
  
  
  
  
  
  
  
  
  
  
  
  
  
  
  
 </defs>
 <g
   id="_30287488"
   transform="matrix(3.0748575,0,0,3.0748575,0.1027597,-11.585419)">
   <path
   style="fill:none;fill-rule:nonzero;stroke:#000000;stroke-width:0.0230938;stroke-linecap:round"
   d="M 1.33639,4.35429 C 1.3785514,4.28052 1.2942401,4.164592 1.33639,4.059191 C 1.3785514,3.953797 1.3785514,3.880019 1.3996225,3.816794 C 1.4206974,3.7535538 1.4628473,3.7957036 1.5366285,3.7430086 C 1.6103947,3.6903174 1.7029855,3.6756728 1.7135155,3.6229816 M 1.7135155,3.6229816 C 1.6742552,3.5679941 1.6074935,3.4580386 1.6074935,3.4187666 C 1.6074935,3.3794948 1.5603773,3.3716504 1.6349872,3.3677167 C 1.7095933,3.3637984 1.8273932,3.3559386 1.8784432,3.3480827 C 1.9294931,3.3402229 1.9491155,3.3480711 1.956983,3.3363046 C 1.9648428,3.3245265 2.0040992,3.3206005 1.737087,3.3245265 C 1.470056,3.3284448 1.399372,3.3323708 1.226599,3.3205889 C 1.053811,3.3088108 0.967427,3.3088108 0.822133,3.3088108 C 0.676839,3.3088108 0.551183,3.3166667 0.641501,3.3441605 C 0.7318266,3.3716427 0.806433,3.3677321 0.857483,3.3794947 C 0.9085213,3.3912766 0.959567,3.4148444 0.994921,3.4580384 C 1.0302552,3.5012324 1.195187,3.5837094 1.391527,3.5797764 M 1.391527,3.5797764 C 1.391527,3.5797764 1.434721,3.7132994 1.4268651,3.7800654 M 1.5917931,3.3755764 C 1.5054051,3.5248004 1.4661371,3.5444384 1.4268651,3.7800654"
   class="fil0 str5"
   id="_30188584" />
   <path
   style="fill:none;fill-rule:nonzero;stroke:#000000;stroke-width:0.00959738;stroke-linecap:round"
   d="M 1.49755,3.54051 C 1.383672,3.5562103 1.238378,3.54051 1.191251,3.5208606 C 1.1441348,3.5012266 1.1166449,3.4894601 1.049895,3.4933823"
   class="fil0 str4"
   id="_30543904" />
   <path
   style="fill:none;fill-rule:nonzero;stroke:#000000;stroke-width:0.0230938;stroke-linecap:round"
   d="M 0.610095,3.32844 C 0.61402103,3.3755716 0.610095,3.520862 0.5943832,3.548351"
   class="fil0 str5"
   id="_30142360" />
   <path
   style="fill:none;fill-rule:nonzero;stroke:#000000;stroke-width:0.0058717;stroke-linecap:round"
   d="M 0.594383,3.54835 C 0.6925606,3.5640657 0.743611,3.5522876 0.794645,3.54835 C 0.8456988,3.5444317 0.8417727,3.5326536 0.8692665,3.5640657 C 0.8967487,3.5954816 0.9281762,3.6386756 0.9792105,3.6386756 C 1.0302604,3.6386756 1.1402045,3.6936592 1.1323605,3.8036146"
   class="fil0 str7"
   id="_30592912" />
   <path
   style="fill:none;fill-rule:nonzero;stroke:#000000;stroke-width:0.00959738;stroke-linecap:round"
   d="M 0.81036,3.66225 C 0.8221381,3.7564901 0.8535501,3.78791 0.916382,3.791844 C 0.97921,3.7957623 1.08917,3.8193223 1.061676,3.897866"
   class="fil0 str4"
   id="_30544048" />
   <path
   style="fill:none;fill-rule:nonzero;stroke:#000000;stroke-width:0.0058717;stroke-linecap:round"
   d="M 0.96351,3.85467 C 1.0106262,3.8703818 1.0616761,3.9135758 0.9831478,3.9292915 C 0.9046041,3.9449918 0.8692658,3.9921156 0.8378538,4.0353135 C 0.8064379,4.0785036 0.6650658,4.1688365 0.6336538,4.117787"
   class="fil0 str7"
   id="_30403192" />
   <path
   style="fill:none;fill-rule:nonzero;stroke:#000000;stroke-width:0.00959738;stroke-linecap:round"
   d="M 0.994926,3.45804 C 0.9556542,3.4698219 0.9556542,3.5405058 0.9556542,3.615123 M 1.0498981,3.493389 C 1.0106263,3.5051671 1.0106263,3.575851 1.0106263,3.650461 M 1.6703263,3.544439 C 1.7213762,3.5287272 1.7213762,3.5326455 1.7567143,3.5365792 C 1.7920601,3.5405168 1.7724261,3.5483573 1.8156201,3.5287272 C 1.8588102,3.5090894 1.8391763,3.4973113 1.8705922,3.5090894 C 1.9020081,3.5208675 1.8980821,3.532661 1.9177199,3.5208675 C 1.9373539,3.5090894 1.9569879,3.4973113 1.9687698,3.5090894"
   class="fil0 str4"
   id="_30309672" />
   <path
   style="fill:none;fill-rule:nonzero;stroke:#000000;stroke-width:0.0230938;stroke-linecap:round"
   d="M 1.96427,3.32844 L 1.9687662,3.509083 M 1.9177163,3.5208611 C 1.9682037,3.6235391 2.0220583,3.6235391 2.0041004,3.7043211 C 1.9861578,3.7851071 1.9592304,3.8389621 2.0130891,3.8658931 M 1.9687662,3.5090831 C 2.040001,3.6145661 2.0759132,3.6684241 2.0759132,3.8658931 C 2.0759132,4.0633621 2.1746418,4.4044601 2.2015732,4.6557831 C 2.228489,4.9071141 2.3272172,5.5713451 2.3810722,5.8585931 C 2.4349308,6.1458171 2.4618582,6.6215561 2.4887892,6.8280101 C 2.5157166,7.0344561 2.5426324,7.2768061 2.5426324,7.3396461 C 2.5426324,7.4024779 2.5605866,7.4114512 2.4708312,7.4294053 C 2.381072,7.4473633 2.2913162,7.5281455 2.2374622,7.5101913 C 2.1836151,7.4922333 2.0400012,7.5012219 1.9861462,7.4922333 C 1.932303,7.4832639 1.8963985,7.5820041 1.8694752,7.3755503 C 1.842544,7.1690963 1.7886892,6.9716243 1.7617582,6.8280103 C 1.7348462,6.6843843 1.7079034,6.5407703 1.6899608,6.4061303 C 1.6720143,6.2714893 1.5553278,5.9932313 1.5553278,5.8765483 C 1.5553278,5.7598503 1.5284004,5.4636413 1.4835304,5.3469543 C 1.438645,5.2302673 1.4027444,5.2212833 1.4027444,5.1046003 C 1.4027444,4.9879133 1.3847864,4.9071203 1.3937711,4.8442883 C 1.4027444,4.7814603 1.4476182,4.6916933 1.4117176,4.6468193 M 1.4117176,4.6468193 C 1.4117176,4.6468193 1.357859,4.5660217 1.3219584,4.7096473 C 1.2860578,4.8532733 1.2591304,5.2392413 1.1963024,5.4636413 C 1.1334706,5.6880413 0.91805945,6.4869213 0.89113945,6.6036113 C 0.86421595,6.7203013 0.79240315,7.0434383 0.79240315,7.1152393 C 0.79240315,7.1870521 0.75649865,7.3486203 0.72060195,7.3935053 C 0.68470135,7.4383907 0.68470135,7.5191613 0.68470135,7.5371193 M 0.68470135,7.5371193 C 0.58597275,7.5640467 0.56801435,7.5371193 0.46031335,7.5281345 C 0.35260035,7.5191613 0.33465735,7.5460925 0.26285235,7.5281345 C 0.19104345,7.5101919 0.02051335,7.4922339 0.01152835,7.4294059 M 0.59437935,3.5483559 C 0.53211385,3.6594409 0.50518645,3.7940969 0.49621325,3.9017989 C 0.48724388,4.0095089 0.46928585,4.2608469 0.44235845,4.3595799 C 0.41542725,4.4583201 0.42441195,4.6917009 0.40645785,4.7904299 C 0.38851135,4.8891739 0.31669865,5.3828549 0.29875585,5.5354389 C 0.28079785,5.6880419 0.25387045,6.0470899 0.21796985,6.1727609 C 0.18206925,6.2984169 0.11025685,6.7292699 0.09231385,6.8818689 C 0.07436735,7.0344559 0.04744005,7.1332079 0.04744005,7.2139789 C 0.04744005,7.2947649 0.03845527,7.3216919 0.01152785,7.4294059"
   class="fil0 str5"
   id="_30391712" />
   <path
   style="fill:none;fill-rule:nonzero;stroke:#000000;stroke-width:0.00959738;stroke-linecap:round"
   d="M 0.85523,4.5391 C 0.7834326,4.808382 0.675719,5.266162 0.666746,5.391834 C 0.65777277,5.51749 0.559044,6.047084 0.54109,6.16377 C 0.5231435,6.280457 0.460304,6.594624 0.4513308,6.648478 M 0.4333882,6.756191 C 0.42441497,6.8459618 0.3615754,7.079331 0.3436328,7.124217 C 0.3256709,7.1690908 0.298759,7.285789 0.298759,7.330659 M 0.2718278,7.438384 C 0.2538736,7.4473572 0.2718278,7.438384 0.2718278,7.438384 z"
   class="fil0 str4"
   id="_30159336" />
   <path
   style="fill:none;fill-rule:nonzero;stroke:#000000;stroke-width:0.0058717;stroke-linecap:round"
   d="M 0.388515,7.4294 C 0.4513314,7.3845185 0.594949,7.303744 0.639831,7.321687"
   class="fil0 str7"
   id="_30206848" />
   <path
   style="fill:none;fill-rule:nonzero;stroke:#000000;stroke-width:0.00959738;stroke-linecap:round"
   d="M 1.67202,4.09927 C 1.7438212,4.368552 1.788695,4.583994 1.815622,4.736577 C 1.8425494,4.889176 1.968209,5.490571 1.986152,5.580341 C 2.0041062,5.6700964 2.0400068,6.091965 2.0579648,6.154808 M 2.1118234,6.316376 C 2.129766,6.424086 2.129766,6.531803 2.1387354,6.594631 C 2.1477202,6.657459 2.1566934,6.783142 2.1656666,6.854939 C 2.1746475,6.9267402 2.2015788,7.15114 2.2195252,7.222953"
   class="fil0 str4"
   id="_30132136" />
   <path
   style="fill:none;fill-rule:nonzero;stroke:#000000;stroke-width:0.0153574;stroke-linecap:round"
   d="M 0.6488,3.61456 C 0.6218726,3.7043269 0.5769872,3.749212 0.6039185,3.847941 C 0.6308459,3.946685 0.5231441,3.8838416 0.5590447,3.973612"
   class="fil0 str6"
   id="_30544096" />
   <path
   style="fill:none;fill-rule:nonzero;stroke:#000000;stroke-width:0.00959738;stroke-linecap:round"
   d="M 1.0643,3.65913 C 1.1321097,3.6912625 1.1106995,3.6877025 1.196352,3.7091127 C 1.282008,3.7305228 1.38551,3.6769763 1.417631,3.7055334 M 1.5175732,3.5127924 C 1.5139978,3.5770498 1.5354079,3.6805524 1.5461226,3.6983984 C 1.5568334,3.7162485 1.553258,3.7269478 1.5675327,3.7269478 M 1.4140667,4.2980328 C 1.4818764,4.1374238 1.4818764,4.0481808 1.5247117,3.9696608 C 1.567532,3.8911441 1.5639681,3.8340378 1.6067884,3.7876308 C 1.6496241,3.7412235 1.6638949,3.7019748 1.6746058,3.7340958 M 1.4568908,4.3051808 C 1.5104373,4.2908984 1.4997226,4.1374248 1.5496938,4.1338458 C 1.5996534,4.1302858 1.6674708,4.055333 1.6282143,4.0053618 M 1.6746061,3.8554528 C 1.7174418,3.7876316 1.7602621,3.7019638 1.8030981,3.7269498 C 1.8459338,3.7519354 1.8459338,3.7876318 1.9066001,3.7804963 C 1.9672705,3.7733609 2.0029669,3.6912534 1.9208748,3.6091613 M 0.9857718,4.0053623 C 0.9465154,4.0553334 0.9607862,4.0481941 0.97863637,4.1445613 C 0.99648267,4.2409281 0.95366237,4.2623463 0.89655197,4.2766243 C 0.83944927,4.290899 0.72880797,4.3123323 0.80732447,4.3480171 M 1.2891475,3.7412241 C 1.2748728,3.8483131 1.2463234,3.8661591 1.2748728,3.9054201 C 1.3034299,3.9446804 1.2712973,4.0124981 1.3177046,4.0731801"
   class="fil0 str4"
   id="_30380000" />
   <path
   style="fill:none;fill-rule:nonzero;stroke:#000000;stroke-width:0.0058717;stroke-linecap:round"
   d="M 1.1214,3.95895 C 1.0928506,4.0446137 1.0607296,4.094585 1.1107007,4.173105 C 1.1606564,4.2516332 1.2213387,4.380121 1.1749427,4.412257 M 1.096426,4.4408026 C 1.0464549,4.422964 0.935817,4.3908315 0.921543,4.3944031 M 1.399798,4.4158171 C 1.521135,4.4051063 1.567535,4.3765684 1.571106,4.3123151 C 1.5746699,4.2480577 1.5925161,4.1445551 1.6353518,4.1731051 M 1.6924468,4.3515751 C 1.6781875,4.4408026 1.6389157,4.4693481 1.5711058,4.4515135 C 1.5033038,4.4336672 1.4069328,4.4550774 1.3997978,4.4657882 M 1.3319766,4.4622243 C 1.2784455,4.5264663 1.3676614,4.5264586 1.3212696,4.5764373 M 1.7102926,3.8947033 C 1.7495644,3.8554469 1.735282,3.8090358 1.7888131,3.859003 C 1.8423558,3.908978 1.8780406,3.908978 1.9066021,3.887564 M 1.9601371,4.240922 C 1.9137376,4.2766184 1.8744811,4.2516328 1.8173741,4.440803 M 1.2142031,4.708501 C 1.0999901,4.7727584 1.0500191,4.794157 1.0321801,4.7691714 C 1.0143338,4.7441974 1.0964105,4.740622 1.1356821,4.6906509 M 1.1927925,4.8262899 C 1.1035611,4.8262899 0.9786485,4.8548509 0.9679345,4.904822 M 0.9857731,4.9512177 C 0.98934852,4.9547778 1.1785031,4.936943 1.1785031,4.936943 M 1.1285474,4.997625 C 1.06073,5.061867 1.06073,5.115398 0.9964844,5.147523 M 0.9286786,4.997625 C 0.9108323,5.0475961 0.8251646,5.118962 0.7787806,5.140388 C 0.7323849,5.1617981 0.7073878,5.1903591 0.7073878,5.2046415 M 0.7430842,5.2795866 C 0.8037546,5.2760112 0.8644332,5.3009967 0.8894182,5.3366931 C 0.9144038,5.3723895 0.89654592,5.425936 0.89298206,5.4473461 C 0.8894182,5.4687562 0.76450606,5.4580454 0.75021906,5.5258628 C 0.73594816,5.5936802 0.71453426,5.6864988 0.69668796,5.7043328 M 1.674608,5.0333098 C 1.792389,5.0511599 1.78169,5.0654308 1.82451,5.1011272 M 1.992258,5.1725085 C 2.0457891,5.1368121 2.0565,5.0939803 2.085061,5.1082627 M 1.960137,5.1403875 C 2.0029688,5.0975518 2.0172397,5.0582954 2.0565,5.0582954 C 2.0957603,5.0582954 2.0814856,4.9654886 1.9958296,4.9940496 M 1.4783146,4.6728046 C 1.6032306,4.6978017 1.6888826,4.6799439 1.6960186,4.740622 M 1.6995978,4.7870331 C 1.6103664,4.7834577 1.5032888,4.7727584 1.4997248,4.7834577 M 1.8637668,4.6121377 C 1.8673461,4.5514519 1.8137995,4.4764957 1.8673461,4.4515137 C 1.9208772,4.4265281 1.9137379,4.4193927 1.9244488,4.5336058 M 0.5289388,6.4931458 C 0.6681378,6.4467501 0.6752768,6.3824928 0.7216688,6.3789328 C 0.7680683,6.3753536 0.710958,6.3218224 0.6645661,6.3575227 M 0.4789681,6.7215877 C 0.5039537,6.6680412 0.4968182,6.6537703 0.5467855,6.6145057 C 0.5967566,6.5752493 0.6431562,6.5752377 0.6538515,6.5359775 C 0.6645662,6.4967172 0.64671607,6.5109919 0.5931849,6.5252782 C 0.5396499,6.5395529 0.5039535,6.5502638 0.5039535,6.5502638 M 2.1957035,6.8500708 C 2.2028389,6.8893426 2.2777802,6.8572217 2.2706448,6.7429968 C 2.2635094,6.6287798 2.23496,6.5466758 2.3170405,6.5359768 M 2.4241185,7.1855898 C 2.367012,7.2498356 2.3563011,7.2641103 2.3563011,7.3069418 C 2.3563011,7.3497736 2.3705874,7.4211708 2.3170408,7.4247308 M 0.4325708,7.4675549 C 0.5217983,7.4390055 0.6110298,7.3890459 0.6146048,7.4211708 C 0.61816481,7.4532802 0.6146048,7.5318088 0.5539228,7.5103983 M 0.3076578,7.0428163 C 0.2576867,7.0106953 0.2005798,7.0035599 0.2184303,6.9250273 M 0.0578173,7.3997453 C 0.1149238,7.3212171 0.1934403,7.2427003 0.2362763,7.2070003 C 0.2790966,7.1713155 0.250551,7.2712615 0.24341173,7.2998071 M 1.5568317,5.2795871 C 1.7031657,5.3117235 1.6960147,5.2760233 1.7781107,5.3616908 C 1.8602028,5.4473468 1.731715,5.4473468 1.7138687,5.5187398 C 1.6960147,5.5901211 1.5818127,5.515176 1.5960877,5.5722709 M 0.42899773,6.0041569 C 0.49325123,5.7971369 0.50752593,5.8542479 0.52179683,5.5687069 C 0.53607153,5.2831629 0.45041553,5.0689959 0.50037903,4.9405079"
   class="fil0 str7"
   id="_30292808" />
  </g>
</svg>